<?xml version="1.0" encoding="UTF-8"?>
<svg id="Layer_1" data-name="Layer 1" xmlns="http://www.w3.org/2000/svg" viewBox="0 0 1176.29 105">
  <defs>
    <style>
      .cls-1 {
        fill: #fff;
      }
    </style>
  </defs>
  <path class="cls-1" d="M120.6,0c2.25,0,3.45,1.05,3.45,3.3v14.7c0,2.25-1.2,3.3-3.45,3.3h-47.25v80.4c0,2.25-.9,3.3-3.15,3.3h-16.35c-2.1,0-3.3-1.05-3.3-3.3V21.3H3.3c-2.1,0-3.3-1.05-3.3-3.3V3.3C0,1.05,1.2,0,3.3,0h117.3Z"/>
  <path class="cls-1" d="M184.5,0c7.8,0,12.3,2.25,17.25,11.4l49.65,90.15c1.05,2.1.6,3.45-1.8,3.45h-19.05c-1.95,0-2.85-.45-3.45-1.8l-9.9-18.3h-71.85l-9.75,18.3c-.75,1.35-1.5,1.8-3.45,1.8h-19.65c-2.4,0-2.85-1.35-1.8-3.45L159.9,11.4c4.8-9.15,9.45-11.4,15.75-11.4h8.85ZM206.55,65.4l-23.25-43.05c-.45-.75-1.05-1.05-1.8-1.05h-.9c-.75,0-1.2.3-1.65,1.05l-23.1,43.05h50.7Z"/>
  <path class="cls-1" d="M368.39,0c2.1,0,3.3,1.05,3.3,3.3v14.55c0,2.1-1.2,3.3-3.3,3.3h-75.15c-5.4,0-7.95,2.55-7.95,8.1v5.1c0,5.4,2.4,7.65,7.95,7.65h56.1c16.8,0,26.25,9.6,26.25,26.4v12.15c0,15.45-9.3,24.45-26.55,24.45h-83.1c-2.25,0-3.3-1.05-3.3-3.3v-14.55c0-2.1,1.05-3.3,3.3-3.3h78.75c5.25,0,7.95-2.55,7.95-8.1v-6.15c0-5.4-2.25-7.65-7.8-7.65h-56.25c-16.8,0-26.1-9.6-26.1-26.4v-11.1c0-15.45,9.15-24.45,26.4-24.45h79.5Z"/>
  <path class="cls-1" d="M412.35,0c2.25,0,3.3,1.05,3.3,3.3v39.15h20.85c10.2,0,12.75-.9,16.65-6L479.24,1.95c1.05-1.5,1.8-1.95,4.35-1.95h18.75c2.25,0,3,2.1,1.8,3.6l-29.1,37.65c-3.3,4.35-6.15,7.65-9,10.05,4.05,2.55,7.65,6,11.4,10.8l30.75,39c1.2,1.2.6,3.9-1.95,3.9h-19.05c-2.4,0-3.3-.45-4.35-1.95l-27.75-35.55c-3.9-5.1-6.9-6.15-16.65-6.15h-22.8v40.35c0,2.25-1.05,3.3-3.3,3.3h-16.2c-2.25,0-3.3-1.05-3.3-3.3V3.3c0-2.25,1.05-3.3,3.3-3.3h16.2Z"/>
  <path class="cls-1" d="M605.84,0c22.95,0,32.25,10.65,32.25,30.75v11.25c0,20.25-9.3,31.35-32.25,31.35h-62.1v28.35c0,2.25-1.05,3.3-3.3,3.3h-16.2c-2.25,0-3.3-1.05-3.3-3.3V4.5c0-3,1.5-4.5,4.5-4.5h80.4ZM601.19,52.65c10.2,0,13.95-4.05,13.95-12.9v-5.7c0-9-3.75-13.05-13.95-13.05h-55.5c-1.35,0-1.95.6-1.95,1.8v29.85h57.45Z"/>
  <path class="cls-1" d="M672.29,0c2.25,0,3.3,1.05,3.3,3.3v59.85c0,15.9,4.5,20.55,19.95,20.55h60.75c2.1,0,3.3,1.05,3.3,3.3v14.7c0,2.25-1.2,3.3-3.3,3.3h-61.5c-30.45,0-42-10.8-42-39.6V3.3c0-2.25,1.05-3.3,3.3-3.3h16.2Z"/>
  <path class="cls-1" d="M839.69,0c7.8,0,12.3,2.25,17.25,11.4l49.65,90.15c1.05,2.1.6,3.45-1.8,3.45h-19.05c-1.95,0-2.85-.45-3.45-1.8l-9.9-18.3h-71.85l-9.75,18.3c-.75,1.35-1.5,1.8-3.45,1.8h-19.65c-2.4,0-2.85-1.35-1.8-3.45l49.2-90.15c4.8-9.15,9.45-11.4,15.75-11.4h8.85ZM861.74,65.4l-23.25-43.05c-.45-.75-1.05-1.05-1.8-1.05h-.9c-.75,0-1.2.3-1.65,1.05l-23.1,43.05h50.7Z"/>
  <path class="cls-1" d="M946.34,0c10.8,0,12.6,2.25,17.4,8.85l55.2,73.2c.45.75,1.05,1.05,1.95,1.05h1.35c.75,0,1.2-.45,1.2-1.5V3.3c0-2.25,1.05-3.3,3.3-3.3h16.05c2.25,0,3.3,1.05,3.3,3.3v86.1c0,11.85-4.05,15.6-13.5,15.6h-13.35c-10.8,0-12.6-2.25-17.25-8.85l-55.35-73.2c-.6-.75-1.05-1.05-1.95-1.05h-1.35c-.9,0-1.2.45-1.2,1.5v78.3c0,2.25-1.2,3.3-3.3,3.3h-16.05c-2.25,0-3.3-1.05-3.3-3.3V15.6c0-11.85,3.9-15.6,13.35-15.6h13.5Z"/>
  <path class="cls-1" d="M1172.99,0c2.1,0,3.3,1.05,3.3,3.3v14.55c0,2.1-1.2,3.3-3.3,3.3h-65.85c-15.45,0-19.5,4.35-19.5,20.1v.75h84.45c2.1,0,3.3,1.05,3.3,3.3v13.35c0,2.25-1.2,3.3-3.3,3.3h-84.45v1.8c0,15.75,4.05,20.1,19.5,20.1h65.85c2.1,0,3.3,1.2,3.3,3.3v14.55c0,2.25-1.2,3.3-3.3,3.3h-66c-30.45,0-42-10.95-42-39.6v-25.8c0-28.65,11.55-39.6,42-39.6h66Z"/>
</svg>